<?xml version="1.0" encoding="UTF-8" standalone="no"?>
<svg
   id="Layer_1"
   version="1.1"
   viewBox="0 0 350.19388 478.1693"
   sodipodi:docname="شعار دفعة عقول تبرمج المستقبل بدون.svg"
   inkscape:version="1.4.2 (ebf0e940, 2025-05-08)"
   width="350.19388"
   height="478.16931"
   xmlns:inkscape="http://www.inkscape.org/namespaces/inkscape"
   xmlns:sodipodi="http://sodipodi.sourceforge.net/DTD/sodipodi-0.dtd"
   xmlns="http://www.w3.org/2000/svg"
   xmlns:svg="http://www.w3.org/2000/svg">
  <sodipodi:namedview
     id="namedview30"
     pagecolor="#ffffff"
     bordercolor="#000000"
     borderopacity="0.25"
     inkscape:showpageshadow="2"
     inkscape:pageopacity="0.0"
     inkscape:pagecheckerboard="0"
     inkscape:deskcolor="#d1d1d1"
     inkscape:zoom="0.7999144"
     inkscape:cx="-103.13604"
     inkscape:cy="337.53612"
     inkscape:window-width="1800"
     inkscape:window-height="1101"
     inkscape:window-x="0"
     inkscape:window-y="40"
     inkscape:window-maximized="1"
     inkscape:current-layer="Layer_1" />
  <!-- Generator: Adobe Illustrator 29.0.0, SVG Export Plug-In . SVG Version: 2.1.0 Build 186)  -->
  <defs
     id="defs1">
    <style
       id="style1">
      .st0 {
        fill: #e5b146;
      }

      .st1 {
        fill: #0c2545;
      }

      .st2 {
        fill: #00b5e1;
      }

      .st3 {
        fill: #e5b246;
      }

      .st4 {
        fill: #00aeef;
      }

      .st5 {
        fill: #16264e;
      }
    </style>
  </defs>
  <g
     id="g30"
     transform="translate(-218.17474,-58.42)">
    <path
       class="st4"
       d="m 471.62,480.66 c 3.3,3.32 1.43,9.97 -3.37,10.73 -12.15,1.92 -28.91,-1.29 -41.56,0 -7.36,-1.16 -6.75,-11.43 0,-12.49 7.19,-1.13 32.47,-0.91 40.06,-0.07 1.3,0.14 4,0.94 4.87,1.81 z"
       id="path10" />
    <g
       id="g29">
      <path
         class="st3"
         d="m 475.7,144.29 c -53.29,-21.65 -122.36,-21 -174.32,4 -8.3,4 -17.72,10.52 -22.21,18.38 -0.08,0.32 -0.14,0.65 -0.21,0.98 0.31,0.08 14.05,6.32 14.05,6.32 0,0 0.05,-0.6 0.11,-0.93 1.09,-6.78 14.18,-14.33 20.48,-16.96 49.35,-20.63 120.7,-20.99 168.42,4.16 4.21,2.22 8.27,7.82 9.26,12.5 0.08,0.4 0.15,0.94 0.2,1.58 1.97,-0.76 14.82,-6.09 15.39,-6.23 v -1.43 c -1.4,-9.82 -22.44,-18.84 -31.15,-22.38 z"
         id="path11" />
      <path
         class="st5"
         d="m 568,136.92 -173.93,-78.5 -3.05,0.19 c -52.39,24.83 -106,47.13 -158.47,71.76 -2.94,1.38 -10.68,4.4 -12.64,5.94 -1.93,1.52 -2.56,3.73 -0.27,5.14 l 65.94,29.09 c -0.09,-18.09 18.72,-24.83 33.25,-28.96 43.32,-12.31 104.61,-12.15 147.99,0 13.8,3.87 35.33,11.42 34.33,28.88 0.49,-0.19 0.97,-0.39 1.45,-0.58 l 46.44,-20.8 v 43.97 c 0,0.49 -5.08,4.15 -5.67,7.91 -1.07,6.74 1.88,8.7 4.28,14.22 l -5.76,44 h 24.31 l -5.57,-45.97 c 3.85,-4.38 5.76,-10.38 2.6,-15.77 -1.09,-1.85 -3.77,-3.05 -4.17,-5.13 1.27,-14.38 -1.74,-31.78 -0.06,-45.78 0.65,-5.38 11.51,-2.98 8.99,-9.63 z"
         id="path12" />
      <path
         class="st0"
         d="m 563.53,196.64 c -0.79,-1.92 -1.35,-3.57 -4.29,-5.28 -5.23,-1.48 -8.14,-0.56 -10.32,0.75 -2.18,1.32 -5.22,4.27 -5.84,8.14 -1.1,6.94 1.93,8.95 4.4,14.64 l -5.92,45.29 h 25.02 l -5.73,-47.31 c 3.96,-4.51 5.12,-10.28 2.67,-16.23 z"
         id="path13" />
      <path
         class="st5"
         d="m 492.49,229.01 c -13.05,-14.88 -29.17,-26.15 -44.79,-28.35 -19.24,-3.6 -40.91,-1.19 -54.61,17.77 l -1.48,-0.45 c -14.54,-24.03 -44.25,-22.52 -67.17,-14.94 -9.37,2.66 -20.61,10.08 -32.15,25.18 v -59.48 c 0,-7.9 12.03,-13.75 18.22,-16.1 40.56,-15.38 127.57,-16.42 167.21,1.54 3.07,1.39 14.76,8.31 14.76,11.7 V 229 Z"
         id="path14" />
      <path
         class="st1"
         d="m 344.35,206.35 c 25.31,-2.58 42.85,7.68 45.78,33.93 l -0.04,260.98 c -3.49,46.48 -62.73,42.94 -84.1,11.81 -25.71,-0.61 -46.82,-20.38 -51.49,-45.19 -26.16,-10.55 -38.38,-37.29 -33.16,-64.62 0.74,-3.86 5.15,-13.32 5.19,-15.15 0.05,-2.21 -3.41,-8.54 -4.25,-11.41 -6.43,-21.9 -1.72,-44.13 11.55,-62.35 2.29,-3.14 8.56,-8.96 9.47,-11.75 1.23,-3.78 0.74,-9.48 1.76,-13.96 3.68,-16.27 18.24,-33.33 32.63,-41.25 3.56,-1.96 13.62,-5.1 15.37,-6.64 1.68,-1.47 4.26,-7.04 6.25,-9.47 10.08,-12.3 29.11,-23.29 45.04,-24.91 z m -14.78,138.11 h 19.26 c 3.94,0 19.27,-14.49 24.19,-16.47 l 1.17,-2.15 0.21,-82.41 c -3.41,-42.97 -71.05,-14.42 -67.56,13.32 1.35,10.72 18.46,23.18 24.98,31.61 3.26,10.14 -5.2,14.85 -13.27,7.77 -6.11,-5.36 -23.16,-23.95 -25.53,-31.06 -0.71,-2.13 -0.98,-4.82 -1.19,-7.07 -15.3,4.24 -31.5,22.67 -32.25,38.88 -0.18,3.81 1.68,9.21 0.4,12.2 -0.67,1.57 -7.62,7.34 -9.43,9.43 -13.12,15.24 -18.68,32.62 -13.16,52.49 1.2,4.34 5.78,12.29 5.78,15.51 0,3.68 -4.88,12.22 -5.98,16.89 -3.67,15.59 -1.15,32.7 11.39,43.64 1.55,1.35 9.5,7.44 10.93,5.01 -0.47,-15.24 9.31,-23.53 18.64,-33.67 l -0.05,-0.84 c -4.75,-6.63 -19.92,-15.16 -20.88,-23.16 -0.9,-7.45 0.68,-16.6 0.05,-24.25 -18.45,-7.3 -10.73,-33.67 9.03,-31.2 11.91,1.49 15.65,16.31 9.68,25.44 -1.48,2.26 -5.59,4.41 -6.01,5.78 -0.65,2.13 -0.38,19.23 0.45,21.27 0.64,1.58 13.67,13.96 14.89,14.27 l 1.22,-0.03 c 9.76,-9.1 28.37,-4.92 28.15,9.95 -0.18,11.88 -9.93,21.95 -22.06,18.06 -1.87,-0.6 -4.72,-3.1 -6.52,-2.64 -8.32,6.89 -14.79,14.32 -16.21,25.51 -2.22,17.45 11.05,36.3 28.2,40.05 4.6,1 13.03,0.69 16.49,2.37 2.25,1.09 8.53,10.79 12.25,13.69 14.41,11.24 43.21,14.55 47.45,-8.32 -2.23,-50.19 3.26,-103.38 0.12,-153.22 -0.13,-2.02 -0.5,-3.89 -0.83,-5.86 -0.82,-0.82 -15.89,11.75 -19.43,12.39 -4.42,0.81 -30.07,0.91 -34.23,0 -1.38,-0.3 -2.8,-1.02 -2.93,-2.57 1.23,-7.27 -2.47,-20.85 1.57,-26.73 5.14,-7.5 17.2,-14.56 22.42,-21.59 0.69,-0.93 1.58,-1.69 1.78,-2.93 l 0.18,-33.47 c -12.77,-5.79 -13.32,-26.32 0.23,-31.35 20.2,-7.51 32.1,20.15 13.84,30.35 l -0.71,1.64 c -1.38,11 2.13,27.53 -0.76,37.75 -1.73,6.12 -18.16,19.84 -23.61,25.15 -0.61,0.59 -2.01,0.99 -2.19,1.3 -0.86,1.47 0.26,7.13 -0.17,9.27 z m 16.7,-93.35 c -3.53,3.53 1,10.85 5.74,6.13 5.05,-5.03 -2.48,-9.39 -5.74,-6.13 z m -80.55,107.31 c 4.59,-4.62 -4.65,-11.7 -6.72,-4.75 -1.56,5.23 4.15,7.33 6.72,4.75 z m 35.36,62.08 c 4.01,-4.24 -1.96,-11.25 -6.45,-6.06 -4.4,5.09 2.76,9.96 6.45,6.06 z"
         id="path15" />
      <path
         class="st1"
         d="m 425.3,206.34 c 23.94,-2.87 49.75,11.46 63.08,30.81 1.25,1.82 2.68,6.1 3.95,7.06 1.59,1.2 6.99,2.13 9.38,3.2 21.15,9.44 35.18,25.73 39.1,48.94 0.43,2.57 -0.32,5.94 0.62,8.02 0.58,1.29 7.84,8.27 9.68,10.76 15.3,20.75 17.98,41.45 9.38,65.71 -0.68,1.93 -2.84,4.77 -2.87,6.46 -0.04,1.98 3.23,8.05 4.05,10.82 6.37,21.34 -0.47,46.37 -16.7,61.52 -2.15,2 -7.69,5.07 -9.01,6.71 -1.32,1.64 -2.97,8.72 -4.22,11.5 -6.6,14.62 -21.6,28.95 -37.07,33.67 -4.56,1.39 -11.92,1.72 -15.52,3.35 -2.54,1.15 -6.31,6.28 -8.92,8.37 -23.65,18.92 -64.8,20.54 -74.24,-13.66 -2.66,-90.3 -0.41,-181.1 -1.14,-271.58 1.64,-16.45 13.85,-29.64 30.47,-31.63 z m -14.77,197.07 v 102.58 c 0,4.58 6.86,11.54 11,13.36 14.36,6.32 33.04,-2.06 43.25,-12.56 4.35,-4.47 4,-8.07 11.46,-8.97 2.55,-0.31 5.17,0.19 7.68,-0.18 21.32,-3.21 34.24,-19.7 37.52,-40.3 21.03,-11.54 32.48,-32.03 25.29,-56.11 -1.05,-3.53 -5.77,-11.43 -5.77,-13.93 0,-2.25 5.97,-13.65 7.06,-18.14 5.67,-23.31 -4.6,-43.88 -22.57,-58.27 2.26,-20.16 -8.58,-39.25 -26.59,-48.08 -3.64,-1.79 -17.74,-5.36 -18.82,-6.33 -1.36,-1.23 -1.6,-4.85 -2.56,-6.87 -8.06,-16.9 -34.78,-32.07 -53.45,-27.23 -4.76,1.23 -13.5,9 -13.5,14.01 v 80.57 l 97.81,0.84 c 5.11,0.72 6.75,8.42 3.24,11.78 -0.49,0.47 -4.38,2.32 -4.76,2.32 h -96.29 v 18.47 l 1.18,1.18 h 32.23 c 2.71,0 4.55,4.91 4.37,7.46 -0.16,2.24 -3.13,6.69 -5.16,6.69 h -32.62 v 23.58 H 524.9 c 2.92,0 6.06,4.47 5.87,7.42 -0.19,2.92 -3.89,6.73 -6.65,6.73 H 410.54 Z"
         id="path16" />
      <path
         class="st1"
         d="m 338.84,384.38 c 0.34,-0.2 0.85,-1.91 1.68,-2.62 5.37,-4.54 10.44,-6.22 17.33,-3.87 20.52,7 9.95,38.3 -11.63,32.07 -5.62,-1.62 -7.29,-6.71 -10.35,-10.87 -5.03,-1.47 -12.05,1.18 -16.48,-1.6 l -32.14,-32.31 c -1.1,-1.93 -1.53,-3.93 -1.72,-6.14 -1.11,-12.52 0.9,-26.62 0.02,-39.32 l -0.71,-1.64 c -11.27,-5.07 -11.6,-24.43 -0.77,-29.74 17.21,-8.42 30.58,15.69 19.61,27.47 -1.62,1.75 -4.27,2.33 -4.74,4.69 l 0.41,38.08 c 8.36,9.25 17.24,19.59 27.43,26.67 2.8,-1.65 10.22,0.21 12.07,-0.87 z m -49.58,-84.59 c -3.35,0.98 -2.78,7.89 0.62,8.52 9.37,1.76 6.49,-10.6 -0.62,-8.52 z m 61.32,89.59 c -4.13,1.11 -3.8,7.92 0.65,8.55 8.02,1.12 5.78,-10.27 -0.65,-8.55 z"
         id="path17" />
      <path
         class="st1"
         d="m 309.41,450.84 c 3.52,-4.15 10.45,-9.8 14.68,-14.01 3.22,-3.2 5.85,-8.14 10.96,-9.48 2.8,-0.74 17.01,-1.51 20,-1.08 4.92,0.7 8.15,4.81 5.78,9.57 -3.68,7.4 -16.81,1.34 -22.26,4.47 -1.13,0.65 -17.83,17.34 -18.47,18.47 -1.8,3.16 -0.41,8.7 -4.02,14.06 -4.85,7.2 -23.43,14.08 -21.93,0.11 0.63,-5.87 8.65,-4.24 10.98,-7.91 2.13,-3.37 -0.3,-8.8 4.28,-14.19 z"
         id="path18" />
      <path
         class="st1"
         d="m 358.09,489.32 -0.62,1.68 c 4.15,23.39 -17.26,22.98 -11.56,-0.66 -1.94,-2.45 -5.15,-3.68 -6.79,-6.49 -4.17,-7.15 -0.73,-18.6 6.95,-21.9 17.67,-7.6 27.83,19.04 12.01,27.36 z m -7.56,-17.41 c -2.36,0.78 -4.12,8.6 1.41,7.76 4.9,-0.74 4.46,-9.7 -1.41,-7.76 z"
         id="path19" />
      <path
         class="st4"
         d="m 520.31,448.73 c -4.46,4.65 -16.38,8.72 -21.7,13.27 -6.02,2.86 -10.51,-4.56 -6.7,-9.05 1.71,-2.02 11.25,-6.47 14.28,-8.49 0.44,-0.3 1.49,0.12 1.03,-1.35 -0.27,-0.84 -13.19,-7.41 -14.96,-9.42 -3.92,-4.43 -0.54,-11.59 5.55,-9.5 3.75,3.16 23.13,13.28 24.17,16.71 0.78,2.57 0.2,5.88 -1.67,7.82 z"
         id="path20" />
      <path
         class="st4"
         d="m 450.43,423.98 c 4.84,-0.83 6.98,4.52 5.28,8.5 -1.48,3.47 -12.55,7.22 -15.29,10.63 0.04,1.03 14.03,8.38 15.61,11.09 2.79,4.77 -1.98,9.71 -7.55,7.55 -2.29,-0.89 -19.57,-12.18 -21.4,-13.96 -3.17,-3.08 -2.89,-6.89 0.34,-9.81 6.16,-2.22 17.37,-13.04 23.01,-14 z"
         id="path21" />
      <path
         class="st4"
         d="m 479.5,416.13 c 4.23,-0.88 8.16,2.69 6.96,6.95 -5.66,11.87 -8.09,30.85 -14.01,41.85 -3.14,5.81 -11.05,2.95 -10.48,-3.38 5.56,-12.85 8.19,-28.79 13.65,-41.39 0.83,-1.91 1.65,-3.57 3.88,-4.03 z"
         id="path22" />
      <path
         class="st4"
         d="m 487.97,271.78 c 4.46,0.17 9.47,3.48 10.42,8.01 1.46,6.95 1.71,18.62 -5.56,22.38 -19.25,9.96 -24.97,-31.17 -4.86,-30.39 z m 1.09,9.09 c -5.91,-2.6 -4.68,12.44 -2.58,13.19 h 2.58 c 1.23,-0.81 1.24,-12.37 0,-13.19 z"
         id="path23" />
      <path
         class="st4"
         d="m 433.89,272.31 c 14.77,-3.35 16.51,10.4 15.18,21.47 -1.52,12.63 -20.91,13.4 -22.73,-1.68 -0.75,-6.2 -0.13,-18.05 7.55,-19.79 z m 3.06,8.54 c -3.14,0.94 -2.81,13.34 0.69,13.35 4.08,0.02 3.26,-10.32 1.59,-12.63 l -2.29,-0.73 z"
         id="path24" />
      <path
         class="st4"
         d="m 468.62,357.9 c -2.09,-0.44 -4.59,-0.46 -5.64,-2.61 -4.23,-8.7 13.17,-12.08 14.98,-3.98 0.72,3.24 0.6,17.4 0.1,20.98 -0.97,6.92 -7.87,7.38 -9.19,1.48 -0.63,-2.79 0.36,-15.16 -0.25,-15.87 z"
         id="path25" />
      <path
         class="st4"
         d="m 518.1,357.93 c -0.54,-0.6 -4.02,-0.25 -4.6,-3.69 -1.43,-8.48 12.15,-10.44 13.81,-3.55 0.83,3.42 0.86,18.74 0.29,22.41 -0.85,5.51 -8.06,6.62 -9.21,1.45 -0.64,-2.9 0.39,-15.85 -0.29,-16.62 z"
         id="path26" />
      <path
         class="st4"
         d="m 498.33,346.96 c 3.32,-1.01 6.69,0.63 7.26,4.23 0.62,3.98 0.54,17.03 -0.02,21.1 -1.03,7.4 -9.05,7.41 -10.08,0 -0.55,-3.98 -0.66,-17.27 -0.03,-21.11 0.25,-1.54 1.29,-3.75 2.86,-4.23 z"
         id="path27" />
      <path
         class="st4"
         d="m 458.67,273.12 c 2.78,-2.78 8.4,-1.31 8.9,3.7 0.45,4.51 0.58,18.25 -0.48,22.4 -1.31,5.13 -8.38,5.12 -9.34,-0.79 -0.71,-4.34 -0.47,-16.52 -0.08,-21.21 0.1,-1.22 0.14,-3.24 1,-4.1 z"
         id="path28" />
      <path
         class="st2"
         d="m 432.32,246.38 c 4.54,-1.01 19.48,-1.62 20.54,4.34 1.59,8.97 -12.66,7.92 -18.35,7.28 -8.8,-1 -8.39,-10.24 -2.19,-11.62 z"
         id="path29" />
    </g>
  </g>
</svg>
